<svg width="12" height="13" viewBox="0 0 12 13" fill="none" xmlns="http://www.w3.org/2000/svg">
<path d="M6.1665 6.53125C7.67725 6.53125 8.90869 5.18555 8.90869 3.54785C8.90869 1.92285 7.68359 0.646973 6.1665 0.646973C4.66211 0.646973 3.42432 1.94824 3.42432 3.56055C3.43066 5.19189 4.65576 6.53125 6.1665 6.53125ZM6.1665 5.57275C5.23975 5.57275 4.44629 4.68408 4.44629 3.56055C4.44629 2.45605 5.22705 1.60547 6.1665 1.60547C7.1123 1.60547 7.88672 2.44336 7.88672 3.54785C7.88672 4.67139 7.09961 5.57275 6.1665 5.57275ZM2.17383 12.4028H10.1528C11.2065 12.4028 11.708 12.0854 11.708 11.3872C11.708 9.72412 9.60693 7.31836 6.1665 7.31836C2.71973 7.31836 0.618652 9.72412 0.618652 11.3872C0.618652 12.0854 1.12012 12.4028 2.17383 12.4028ZM1.87549 11.4443C1.71045 11.4443 1.64062 11.3999 1.64062 11.2666C1.64062 10.2256 3.25293 8.27686 6.1665 8.27686C9.07373 8.27686 10.686 10.2256 10.686 11.2666C10.686 11.3999 10.6226 11.4443 10.4575 11.4443H1.87549Z" fill="#808080"/>
</svg>
