<svg width="24" height="24" viewBox="0 0 24 24" fill="none" xmlns="http://www.w3.org/2000/svg">
<rect width="24" height="24" rx="4" fill="#FFB320"/>
<path d="M5.23828 7.65039H16.2598C16.5527 7.65039 16.793 7.41016 16.793 7.11719C16.793 6.82422 16.5586 6.58984 16.2598 6.58984H5.23828C4.93945 6.58984 4.71094 6.82422 4.71094 7.11719C4.71094 7.41016 4.94531 7.65039 5.23828 7.65039ZM5.23828 10.7207H8.94141C9.24023 10.7207 9.47461 10.4805 9.47461 10.1875C9.47461 9.89453 9.24023 9.66016 8.94141 9.66016H5.23828C4.93945 9.66016 4.71094 9.89453 4.71094 10.1875C4.71094 10.4805 4.94531 10.7207 5.23828 10.7207ZM11.4492 16.8086H18.4102C18.9375 16.8086 19.2832 16.4688 19.2832 15.9531V10.5684C19.2832 10.0527 18.9375 9.71289 18.4102 9.71289H11.4492C10.9219 9.71289 10.582 10.0527 10.582 10.5684V15.9531C10.582 16.4688 10.9219 16.8086 11.4492 16.8086ZM11.4668 11.4766C11.3555 11.4766 11.2793 11.4004 11.2793 11.2891V10.6328C11.2793 10.5273 11.3555 10.4453 11.4668 10.4453H12.0293C12.1465 10.4453 12.2227 10.5273 12.2227 10.6328V11.2891C12.2227 11.4004 12.1465 11.4766 12.0293 11.4766H11.4668ZM17.8301 11.4766C17.7188 11.4766 17.6426 11.4004 17.6426 11.2891V10.6328C17.6426 10.5273 17.7188 10.4453 17.8301 10.4453H18.3926C18.5039 10.4453 18.5801 10.5273 18.5801 10.6328V11.2891C18.5801 11.4004 18.5039 11.4766 18.3926 11.4766H17.8301ZM13.0723 12.7949C12.9492 12.7949 12.873 12.7129 12.873 12.5957V10.8379C12.873 10.7207 12.9492 10.6387 13.0723 10.6387H16.7871C16.9102 10.6387 16.9863 10.7207 16.9863 10.8379V12.5957C16.9863 12.7129 16.9102 12.7949 16.7871 12.7949H13.0723ZM11.4668 13.0059C11.3555 13.0059 11.2793 12.9238 11.2793 12.8242V12.1738C11.2793 12.0566 11.3555 11.9805 11.4668 11.9805H12.0293C12.1465 11.9805 12.2227 12.0566 12.2227 12.1738V12.8242C12.2227 12.9238 12.1465 13.0059 12.0293 13.0059H11.4668ZM17.8301 13.0059C17.7188 13.0059 17.6426 12.9238 17.6426 12.8242V12.1738C17.6426 12.0566 17.7188 11.9805 17.8301 11.9805H18.3926C18.5039 11.9805 18.5801 12.0566 18.5801 12.1738V12.8242C18.5801 12.9238 18.5039 13.0059 18.3926 13.0059H17.8301ZM5.23828 13.791H8.94141C9.24023 13.791 9.47461 13.5508 9.47461 13.2578C9.47461 12.9648 9.24023 12.7305 8.94141 12.7305H5.23828C4.93945 12.7305 4.71094 12.9648 4.71094 13.2578C4.71094 13.5508 4.94531 13.791 5.23828 13.791ZM11.4668 14.5352C11.3555 14.5352 11.2793 14.459 11.2793 14.3535V13.6973C11.2793 13.5859 11.3555 13.5098 11.4668 13.5098H12.0293C12.1465 13.5098 12.2227 13.5859 12.2227 13.6973V14.3535C12.2227 14.459 12.1465 14.5352 12.0293 14.5352H11.4668ZM17.8301 14.5352C17.7188 14.5352 17.6426 14.459 17.6426 14.3535V13.6973C17.6426 13.5859 17.7188 13.5098 17.8301 13.5098H18.3926C18.5039 13.5098 18.5801 13.5859 18.5801 13.6973V14.3535C18.5801 14.459 18.5039 14.5352 18.3926 14.5352H17.8301ZM13.0723 15.877C12.9492 15.877 12.873 15.7949 12.873 15.6777V13.9375C12.873 13.8086 12.9492 13.7324 13.0723 13.7324H16.7871C16.9102 13.7324 16.9863 13.8086 16.9863 13.9375V15.6777C16.9863 15.7949 16.9102 15.877 16.7871 15.877H13.0723ZM11.4668 16.0703C11.3555 16.0703 11.2793 15.9941 11.2793 15.8887V15.2324C11.2793 15.1152 11.3555 15.0391 11.4668 15.0391H12.0293C12.1465 15.0391 12.2227 15.1152 12.2227 15.2324V15.8887C12.2227 15.9941 12.1465 16.0703 12.0293 16.0703H11.4668ZM17.8301 16.0703C17.7188 16.0703 17.6426 15.9941 17.6426 15.8887V15.2324C17.6426 15.1152 17.7188 15.0391 17.8301 15.0391H18.3926C18.5039 15.0391 18.5801 15.1152 18.5801 15.2324V15.8887C18.5801 15.9941 18.5039 16.0703 18.3926 16.0703H17.8301ZM5.23828 16.8613H8.94141C9.24023 16.8613 9.47461 16.6211 9.47461 16.3281C9.47461 16.0352 9.24023 15.8008 8.94141 15.8008H5.23828C4.93945 15.8008 4.71094 16.0352 4.71094 16.3281C4.71094 16.6211 4.94531 16.8613 5.23828 16.8613Z" fill="#282828"/>
</svg>
