<svg width="24" height="20" viewBox="0 0 24 20" fill="none" xmlns="http://www.w3.org/2000/svg">
<path d="M7.04883 16.7358H16.9146C17.8887 16.7358 18.438 16.2012 18.438 15.2417V7.91748L19.5732 8.86963C19.6904 8.96484 19.8076 9.04541 19.9614 9.04541C20.2324 9.04541 20.4448 8.88428 20.4448 8.62061C20.4448 8.44482 20.3862 8.33496 20.2544 8.2251L18.438 6.69434V3.64746C18.438 3.38379 18.2622 3.21533 17.9985 3.21533H17.3101C17.0537 3.21533 16.8706 3.38379 16.8706 3.64746V5.37598L12.7983 1.94824C12.3076 1.53076 11.7144 1.53076 11.2163 1.94824L3.73828 8.2251C3.60645 8.33496 3.54785 8.4668 3.54785 8.60596C3.54785 8.83301 3.73096 9.04541 4.03125 9.04541C4.18506 9.04541 4.30957 8.96484 4.41943 8.86963L5.53271 7.93945V15.2417C5.53271 16.2012 6.08203 16.7358 7.04883 16.7358ZM14.0654 10.752C14.0654 10.4443 13.8677 10.2466 13.5601 10.2466H10.4326C10.125 10.2466 9.91992 10.4443 9.91992 10.752V15.835H7.23926C6.70459 15.835 6.44092 15.564 6.44092 15.022V7.17773L11.7144 2.75391C11.8975 2.59277 12.0952 2.57812 12.293 2.75391L17.5298 7.15576V15.022C17.5298 15.564 17.2661 15.835 16.7241 15.835H14.0654V10.752Z" fill="#EAEAEA"/>
</svg>
