<svg width="24" height="20" viewBox="0 0 24 20" fill="none" xmlns="http://www.w3.org/2000/svg">
<path d="M12 17.0581C16.021 17.0581 19.3462 13.7329 19.3462 9.71191C19.3462 5.68359 16.021 2.36572 11.9927 2.36572C7.97168 2.36572 4.65381 5.68359 4.65381 9.71191C4.65381 13.7329 7.979 17.0581 12 17.0581ZM11.8389 14.5312C11.8389 14.4434 11.8608 14.3701 11.9487 14.1138C12.022 13.8794 12.1318 13.5718 12.1245 13.2275C12.1099 12.7954 11.7803 12.4805 10.9014 11.8579C10.7402 11.748 10.5791 11.6309 10.418 11.5137C10.1689 11.3232 10.0664 11.1548 10.0664 10.957C10.0664 10.8545 10.0884 10.7446 10.1616 10.5103C10.2349 10.2759 10.2715 10.1001 10.2715 9.98291C10.2715 9.68262 10.125 9.47754 9.76611 9.17725C9.72217 9.14062 9.68555 9.104 9.63428 9.06738L8.4624 8.02002C7.0708 6.7749 6.95361 5.92529 7.51758 4.93652C8.68945 3.83057 10.2715 3.14941 11.9927 3.14941C13.2012 3.14941 14.3438 3.48633 15.3179 4.06494C14.9297 5.00244 13.2744 5.78613 12.4248 6.23291C12.2856 6.29883 12.2271 6.44531 12.3442 6.60645C12.6592 7.03857 12.7837 7.22168 12.7837 7.40479C12.7837 7.55859 12.6665 7.67578 12.5127 7.67578C12.2417 7.67578 11.4507 6.99463 11.0552 6.99463C10.5938 6.99463 10.0664 7.48535 10.0664 7.91748C10.0664 8.54736 11.3848 9.646 12.0439 9.646C12.4614 9.646 13.1792 9.11865 13.4209 9.11865C13.9409 9.11865 15.3398 10.2905 15.3398 10.7227C15.3398 11.6235 12.9668 14.8901 12.293 14.8901C12.0952 14.8901 11.8389 14.707 11.8389 14.5312ZM12 16.2744C8.40381 16.2744 5.4375 13.3081 5.4375 9.71191C5.4375 8.34229 5.8623 7.06787 6.59473 6.01318C6.60938 6.75293 7.02686 7.57324 8.05957 8.48145L9.22412 9.51416C9.49512 9.75586 9.65625 9.86572 9.65625 9.99756C9.65625 10.1807 9.45117 10.5249 9.45117 10.957C9.45117 11.3599 9.64893 11.7041 10.0518 12.0044C10.9746 12.7002 11.5093 13.0151 11.5093 13.2422C11.5166 13.7036 11.2236 14.0771 11.2236 14.5605C11.2236 15.022 11.8022 15.5054 12.3076 15.5054C13.3184 15.5054 15.9551 12.0337 15.9551 10.7227C15.9551 9.94629 14.2998 8.51074 13.4209 8.51074C13.0254 8.51074 12.4321 9.03076 12.0439 9.03076C11.6777 9.03076 10.6816 8.23975 10.6816 7.91748C10.6816 7.771 10.8867 7.60986 11.0552 7.60986C11.3042 7.60986 12.022 8.29102 12.4468 8.29102C13.0327 8.29102 13.3989 7.91016 13.3989 7.30957C13.3989 7.08984 13.311 6.88477 13.0986 6.58447C13.875 6.18896 15.3618 5.39795 15.8379 4.40918C17.4858 5.61035 18.5625 7.54395 18.5625 9.71191C18.5625 13.3081 15.5962 16.2744 12 16.2744Z" fill="#EAEAEA"/>
</svg>
