<svg width="24" height="20" viewBox="0 0 24 20" fill="none" xmlns="http://www.w3.org/2000/svg">
<path d="M12.0073 9.81445C13.7139 9.81445 15.0835 8.31299 15.0835 6.44531C15.0835 4.62158 13.7065 3.15674 12.0073 3.15674C10.3154 3.15674 8.92383 4.63623 8.93115 6.45264C8.93848 8.32031 10.3008 9.81445 12.0073 9.81445ZM12.0073 8.95752C10.8135 8.95752 9.83936 7.86621 9.83936 6.45264C9.82471 5.09766 10.8135 4.021 12.0073 4.021C13.2012 4.021 14.1753 5.08301 14.1753 6.44531C14.1753 7.85156 13.2085 8.95752 12.0073 8.95752ZM7.26855 16.5308H16.7241C17.8008 16.5308 18.3062 16.1865 18.3062 15.4468C18.3062 13.5352 15.9038 10.8179 12 10.8179C8.08887 10.8179 5.68652 13.5352 5.68652 15.4468C5.68652 16.1865 6.19922 16.5308 7.26855 16.5308ZM7.0415 15.6665C6.70459 15.6665 6.59473 15.5859 6.59473 15.3516C6.59473 13.9673 8.55029 11.6748 12 11.6748C15.4424 11.6748 17.4053 13.9673 17.4053 15.3516C17.4053 15.5859 17.2881 15.6665 16.9585 15.6665H7.0415Z" fill="#EAEAEA"/>
</svg>
