<svg width="24" height="20" viewBox="0 0 24 20" fill="none" xmlns="http://www.w3.org/2000/svg">
<path d="M4.93945 8.27637C4.93945 11.4111 7.48828 13.96 10.623 13.96C11.9121 13.96 13.084 13.5278 14.0361 12.8101L17.8521 16.6333C17.9839 16.7651 18.167 16.8384 18.3501 16.8384C18.7749 16.8384 19.0532 16.5161 19.0532 16.1279C19.0532 15.9375 18.98 15.7617 18.8555 15.6299L15.0542 11.8213C15.8379 10.8472 16.3066 9.6167 16.3066 8.27637C16.3066 5.1416 13.7578 2.59277 10.623 2.59277C7.48828 2.59277 4.93945 5.1416 4.93945 8.27637ZM5.8916 8.27637C5.8916 5.66895 8.01562 3.54492 10.623 3.54492C13.2305 3.54492 15.3545 5.66895 15.3545 8.27637C15.3545 10.8838 13.2305 13.0078 10.623 13.0078C8.01562 13.0078 5.8916 10.8838 5.8916 8.27637Z" fill="#5C5C5C"/>
</svg>
