<svg width="15" height="17" viewBox="0 0 15 17" fill="none" xmlns="http://www.w3.org/2000/svg">
<path d="M0.428223 12.623C0.428223 13.3042 0.92627 13.7656 1.73926 13.7656H4.69092C4.75684 15.1572 5.92871 16.4683 7.6792 16.4683C9.42969 16.4683 10.6016 15.1646 10.6675 13.7656H13.6191C14.4321 13.7656 14.9302 13.3042 14.9302 12.623C14.9302 11.8101 14.2417 11.1362 13.5605 10.499C13.0186 10.001 12.9014 9.01221 12.7769 7.87695C12.645 5.18896 11.8027 3.34326 9.91309 2.66211C9.61279 1.67334 8.77783 0.948242 7.6792 0.948242C6.58057 0.948242 5.74561 1.67334 5.44531 2.66211C3.55566 3.34326 2.71338 5.18896 2.58154 7.87695C2.45703 9.01221 2.33984 10.001 1.79785 10.499C1.1167 11.1362 0.428223 11.8101 0.428223 12.623ZM2.42041 12.2422V12.1616C2.65479 11.9565 3.07227 11.5903 3.4165 11.1875C3.8999 10.6162 4.12695 9.48096 4.20752 8.11865C4.31738 5.3208 5.19629 4.34668 6.32422 4.04639C6.5 4.00244 6.60254 3.91455 6.61719 3.70947C6.66113 2.97705 7.05664 2.50098 7.6792 2.50098C8.30176 2.50098 8.69727 2.97705 8.74121 3.70947C8.75586 3.91455 8.8584 4.00244 9.03418 4.04639C10.1621 4.34668 11.041 5.3208 11.1436 8.11865C11.2314 9.48096 11.4658 10.6162 11.9419 11.1875C12.2861 11.5903 12.6743 11.9565 12.9087 12.1616V12.2422H2.42041ZM6.2583 13.7656H9.1001C9.04883 14.6299 8.47021 15.1865 7.6792 15.1865C6.88818 15.1865 6.30957 14.6299 6.2583 13.7656Z" fill="#EAEAEA"/>
</svg>
